<svg xmlns="http://www.w3.org/2000/svg" width="200.844" height="41.891" viewBox="0 0 200.844 41.891">
  <g id="svgg" transform="translate(-30.167 -12.333)">
    <path id="path0" d="M233.381,26.36c0,9.286.034,14.027.1,14.027s.1.2.1.439a.875.875,0,0,0,.1.5.307.307,0,0,1,.1.238c0,.232.286.8.4.8.05,0,.091.065.091.145,0,.41,1.006,1.633,1.342,1.633.077,0,.14.044.14.1s.067.1.148.1.148.044.148.1.089.1.2.1.2.066.2.148.093.148.247.148c.136,0,.247.044.247.1s.133.1.3.1.3.044.3.1.295.1.686.1a1.721,1.721,0,0,1,.747.1,3.577,3.577,0,0,0,1.142.1,2.666,2.666,0,0,0,1.08-.1c0-.059.362-.1.889-.1s.889-.04.889-.1.244-.1.544-.1.543-.041.543-.092.1-.106.222-.123l.222-.032-.016-1.975c-.009-1.086-.053-2.309-.1-2.716l-.083-.741-.492.018c-.27.01-.507.065-.526.123-.055.165-.963.13-1.1-.043a.527.527,0,0,0-.36-.148c-.161,0-.3-.1-.426-.321a4.02,4.02,0,0,0-.3-.44c-.072-.083-.1-4.122-.1-13.163V12.333h-7.607V26.36m-89.5-12.748c0,.066-.34.1-.919.1a3.479,3.479,0,0,0-1.012.089,1.409,1.409,0,0,1-.538.139,5.044,5.044,0,0,0-1.7.447,2.183,2.183,0,0,1-.608.214c-.092,0-.167.044-.167.1s-.089.1-.2.1-.2.044-.2.1-.089.1-.2.1-.2.04-.2.088-.113.116-.251.151-.224.106-.191.159-.01.1-.1.1-.154.044-.154.1a.1.1,0,0,1-.1.1c-.121,0-.293.131-.746.568a1.876,1.876,0,0,1-.391.321c-.093,0-.28.225-.43.517a2.53,2.53,0,0,1-.3.445,2.017,2.017,0,0,0-.5.862c0,.084-.044.152-.1.152s-.1.111-.1.247-.044.247-.1.247-.1.107-.1.239a1.4,1.4,0,0,1-.142.519c-.481.95-.458,5.4.031,5.888a.467.467,0,0,1,.111.289.511.511,0,0,0,.024.2c.014.012,1.6.045,3.532.074l3.506.053V27.9l-6,.025c-3.3.014-6.011.014-6.024,0s-.047-2.782-.076-6.15l-.053-6.124-.021,6.075c-.012,3.341.013,6.13.056,6.2.06.095,1.433.128,6.1.148l6.02.025v3.445l-.324.084c-.338.088-.348.274-.015.274.1,0,.191.044.191.1s.09.1.2.1a1.058,1.058,0,0,1,.4.1l.392.2a1.183,1.183,0,0,0,.445.1c.136,0,.248.044.248.1,0,.116.637.4.9.4.1,0,.186.044.186.1s.089.1.2.1.2.044.2.1.111.1.247.1.247.037.247.083.177.168.394.272.394.222.4.263.049.074.107.074a4.627,4.627,0,0,1,1.277,1.312.282.282,0,0,0,.1.219,2.149,2.149,0,0,1,.1.846c0,.457-.041.784-.1.784s-.1.078-.1.173c0,.193-.511.815-.668.815a.828.828,0,0,0-.333.245.782.782,0,0,1-.5.247c-.149,0-.271.046-.271.1s-.175.1-.389.1a.741.741,0,0,0-.45.1,6.551,6.551,0,0,1-1.636.1,5.315,5.315,0,0,1-1.575-.1c0-.056-.28-.1-.642-.1s-.642-.043-.642-.1-.2-.1-.445-.1-.445-.036-.445-.08a1.584,1.584,0,0,0-.618-.253,6.053,6.053,0,0,1-.789-.266,1.05,1.05,0,0,0-.414-.092.413.413,0,0,1-.3-.1.327.327,0,0,0-.252-.1c-.1,0-.192-.044-.192-.1s-.111-.1-.247-.1-.247-.04-.247-.089c0-.091-.533-.328-.779-.346a.245.245,0,0,0-.21.138,3.426,3.426,0,0,0-.295,1.112.448.448,0,0,1-.1.32.733.733,0,0,0-.1.45c0,.214-.044.389-.1.389s-.1.178-.1.4-.043.4-.094.4-.122.167-.154.37a2.179,2.179,0,0,1-.152.542,1.03,1.03,0,0,0-.094.414.416.416,0,0,1-.1.3.676.676,0,0,0-.1.426,1.244,1.244,0,0,1-.089.5c-.117.185.085.5.319.5a.547.547,0,0,1,.329.148.557.557,0,0,0,.339.148c.1,0,.19.044.19.1s.108.1.241.1a.414.414,0,0,1,.3.1.4.4,0,0,0,.3.1.4.4,0,0,1,.3.1.51.51,0,0,0,.351.1c.16,0,.29.044.29.1s.172.1.383.1a.75.75,0,0,1,.506.148.68.68,0,0,0,.451.148.591.591,0,0,1,.389.1,1,1,0,0,0,.544.1.994.994,0,0,1,.543.1,2.167,2.167,0,0,0,.846.1c.457,0,.784.041.784.1a28.441,28.441,0,0,0,4.742,0c0-.056.28-.1.642-.1s.642-.04.642-.088.167-.113.37-.142c.78-.114,1.064-.2,1.141-.326a.4.4,0,0,1,.315-.135.4.4,0,0,0,.3-.1.4.4,0,0,1,.294-.1c.128,0,.248-.035.266-.079a1.868,1.868,0,0,1,.506-.3,1.353,1.353,0,0,0,.529-.366.276.276,0,0,1,.247-.146.82.82,0,0,0,.439-.247.968.968,0,0,1,.33-.247,11.666,11.666,0,0,0,1.587-1.577,1.294,1.294,0,0,1,.247-.359,1.061,1.061,0,0,0,.247-.405.9.9,0,0,1,.237-.374,2.1,2.1,0,0,0,.367-.7c.072-.242.165-.44.207-.44s.077-.131.077-.29a.5.5,0,0,1,.1-.351.591.591,0,0,0,.1-.389.679.679,0,0,1,.148-.451c.248-.206.208-4.16-.04-4.006-.039.024-.081-.143-.094-.371s-.066-.429-.118-.447-.094-.159-.094-.313-.033-.295-.074-.312a2.747,2.747,0,0,1-.359-.577,3.264,3.264,0,0,0-.469-.7.527.527,0,0,1-.184-.321c0-.088-.044-.161-.1-.161s-.1-.066-.1-.148-.041-.148-.091-.148a3.972,3.972,0,0,1-1-1c0-.05-.067-.091-.148-.091s-.148-.044-.148-.1-.071-.1-.156-.1a1.107,1.107,0,0,1-.477-.321,1.648,1.648,0,0,0-.447-.349.718.718,0,0,1-.271-.173.977.977,0,0,0-.384-.2c-.132-.033-.24-.1-.24-.148s-.084-.088-.187-.088a.272.272,0,0,1-.244-.148.288.288,0,0,0-.258-.148c-.11,0-.2-.044-.2-.1s-.089-.1-.2-.1-.2-.044-.2-.1-.068-.1-.149-.1a.852.852,0,0,1-.321-.088,6.951,6.951,0,0,0-1.366-.6c-.076,0-.139-.044-.139-.1s-.108-.1-.241-.1a.414.414,0,0,1-.3-.1.411.411,0,0,0-.3-.1c-.133,0-.241-.044-.241-.1a.112.112,0,0,0-.122-.1,3.214,3.214,0,0,1-.667-.263l-.717-.346a.9.9,0,0,0-.321-.083c-.082,0-.149-.044-.149-.1s-.065-.1-.143-.1a.917.917,0,0,1-.41-.247,1.074,1.074,0,0,0-.352-.247,1.333,1.333,0,0,1-.4-.3,1.342,1.342,0,0,0-.394-.3c-.046,0-.084-.111-.084-.247s-.044-.247-.1-.247-.1-.362-.1-.889.04-.889.1-.889.1-.089.1-.2.047-.2.106-.2a.556.556,0,0,0,.388-.388c0-.059.089-.106.2-.106s.2-.044.2-.1.124-.1.277-.1a.674.674,0,0,0,.37-.089,2.309,2.309,0,0,1,.736-.147c.353-.032.835-.087,1.07-.12a.765.765,0,0,1,.539.049,2.931,2.931,0,0,0,1.072.11,3,3,0,0,1,1.023.1.853.853,0,0,0,.494.1.859.859,0,0,1,.494.1.587.587,0,0,0,.389.1.673.673,0,0,1,.442.138c.108.13.2.161.972.315.177.035.321.1.321.152s.133.088.3.088.3.044.3.1.111.1.247.1.247.041.247.092c0,.133.362.228.593.155.165-.053.2-.15.2-.6,0-.4.037-.536.139-.536s.158-.164.2-.494c.033-.272.085-.717.118-.988s.1-.494.148-.494.089-.2.089-.445.044-.445.1-.445.1-.2.1-.436.05-.453.116-.475c.484-.161.056-1.157-.61-1.416-.082-.032-.226-.1-.32-.149a.83.83,0,0,0-.321-.092c-.082,0-.15-.044-.15-.1s-.155-.1-.346-.1-.346-.044-.346-.1-.114-.1-.254-.1a.65.65,0,0,1-.4-.148.712.712,0,0,0-.438-.148c-.159,0-.289-.044-.289-.1s-.2-.1-.439-.1a.875.875,0,0,1-.5-.1,1.172,1.172,0,0,0-.6-.1c-.3,0-.538-.041-.538-.092,0-.091-.853-.156-3.432-.26-.885-.036-1.309-.02-1.309.051m38.328,8.106c0,.056-.28.1-.642.1s-.642.043-.642.1-.2.1-.445.1-.445.044-.445.1-.078.1-.172.1a.768.768,0,0,0-.365.148.742.742,0,0,1-.37.145c-.1,0-.178.044-.178.1s-.067.1-.148.1-.148.044-.148.1-.071.1-.156.1a1.168,1.168,0,0,0-.492.346,1.389,1.389,0,0,1-.436.346c-.056,0-.1.034-.1.075a1.026,1.026,0,0,1-.232.325,1.805,1.805,0,0,0-.289.394,3.013,3.013,0,0,1-.065-.955c-.005-.783-.045-1.13-.138-1.207a50.543,50.543,0,0,0-7.228-.031c-.028.072-.05,5.24-.05,11.483V45.03h3.7c3.23,0,3.717-.02,3.852-.155s.155-.978.155-7.756v-7.6l.222-.344a1.608,1.608,0,0,1,.544-.5c.177-.085.321-.186.321-.224s.145-.129.321-.2.4-.171.493-.222a6.681,6.681,0,0,1,2.249.007c0,.055.084.1.188.1.255,0,.82.584,1.043,1.078.1.222.22.4.266.4s.084.175.084.389a.742.742,0,0,0,.1.45,2.521,2.521,0,0,1,.1.925,2.924,2.924,0,0,0,.1.961c.062.062.107,2.386.124,6.366l.025,6.269,3.671.025c3.24.023,3.69.008,3.828-.13a132.226,132.226,0,0,0,.008-13.514,2.468,2.468,0,0,1,.139-2.122c.474-.434.7-.608.786-.608a1.217,1.217,0,0,0,.369-.247,1,1,0,0,1,.5-.247.367.367,0,0,0,.277-.1,6.3,6.3,0,0,1,2.223,0c0,.055.078.1.173.1.189,0,.519.22.519.342a.554.554,0,0,0,.173.237,1.342,1.342,0,0,1,.42.753.243.243,0,0,0,.148.209c.1.037.148.191.148.442,0,.212.044.385.1.385s.1,2.405.1,7.017c0,6.293.017,7.042.16,7.26l.159.244H200.9c2.866,0,3.655-.031,3.793-.136a121.27,121.27,0,0,0,.021-13.334c-.107-.107-.145-.383-.145-1.035a2.657,2.657,0,0,0-.1-.951,1.172,1.172,0,0,1-.1-.6c0-.3-.044-.538-.1-.538s-.1-.2-.1-.445-.044-.445-.1-.445-.1-.084-.1-.186a2.973,2.973,0,0,0-.389-1,3.8,3.8,0,0,1-.208-.469c-.065-.177-.158-.321-.206-.321s-.087-.06-.087-.133c0-.2-.3-.756-.4-.756a.1.1,0,0,1-.092-.1.8.8,0,0,0-.222-.331c-.122-.126-.324-.348-.447-.494s-.268-.239-.321-.206-.1.008-.1-.055a1.932,1.932,0,0,0-.914-.784c-.1,0-.172-.047-.172-.1s-.084-.1-.187-.1a.274.274,0,0,1-.244-.148.282.282,0,0,0-.252-.148.334.334,0,0,1-.256-.1.5.5,0,0,0-.346-.1.493.493,0,0,1-.346-.1,1.7,1.7,0,0,0-.741-.1,1.708,1.708,0,0,1-.741-.1,2.466,2.466,0,0,0-1.383,0,2.134,2.134,0,0,1-.839.1,2.121,2.121,0,0,0-.84.1.736.736,0,0,1-.45.1c-.214,0-.389.044-.389.1s-.113.1-.25.1a.34.34,0,0,0-.306.148.326.326,0,0,1-.293.148c-.13,0-.236.044-.236.1s-.089.1-.2.1-.2.044-.2.1-.088.1-.2.1c-.188,0-.407.141-.806.519a.768.768,0,0,1-.236.172,2.776,2.776,0,0,0-.737.787c0,.056-.033.091-.074.078s-.076,0-.078.024c-.023.3-.737.74-.737.459a.6.6,0,0,0-.247-.32c-.136-.1-.247-.221-.247-.265a.906.906,0,0,0-.222-.314c-.123-.128-.3-.335-.4-.46s-.173-.192-.173-.149-.174-.1-.387-.325a1.312,1.312,0,0,0-.593-.4c-.113,0-.206-.044-.206-.1s-.062-.1-.137-.1a.234.234,0,0,1-.194-.148.342.342,0,0,0-.307-.148c-.138,0-.25-.044-.25-.1s-.13-.1-.29-.1a.507.507,0,0,1-.351-.1,1.5,1.5,0,0,0-.692-.1,1.511,1.511,0,0,1-.691-.1,1.721,1.721,0,0,0-.747-.1c-.391,0-.686.043-.686.1m39.118,0c0,.057-.33.1-.79.1s-.791.041-.791.1-.175.1-.389.1a.739.739,0,0,0-.45.1.417.417,0,0,1-.3.1.334.334,0,0,0-.3.148.326.326,0,0,1-.293.148c-.13,0-.236.044-.236.1s-.089.1-.2.1-.2.035-.2.078-.144.162-.321.265a2.4,2.4,0,0,0-.481.367.554.554,0,0,1-.234.18,1.669,1.669,0,0,0-.408.365l-.334.365v-.949a6.6,6.6,0,0,0-.06-1.106,36.34,36.34,0,0,0-7.19,0c-.033.086-.06,7.309-.06,16.052v15.9H216V45.03h.4c.217,0,.4.044.4.1s.313.1.741.1.741.042.741.1a6.571,6.571,0,0,0,2.272,0c0-.058.344-.1.833-.1a2.4,2.4,0,0,0,.9-.1.72.72,0,0,1,.445-.1.719.719,0,0,0,.445-.1.517.517,0,0,1,.355-.1c.17,0,.318-.063.35-.148s.18-.148.343-.148.286-.044.286-.1.111-.1.247-.1.247-.044.247-.1.089-.1.2-.1.2-.044.2-.1.074-.1.164-.1a1.194,1.194,0,0,0,.487-.247,1.337,1.337,0,0,1,.43-.247.1.1,0,0,0,.1-.1c0-.055.067-.1.148-.1s.148-.044.148-.1a.1.1,0,0,1,.1-.1,13.456,13.456,0,0,0,1.972-1.977.982.982,0,0,1,.247-.373.94.94,0,0,0,.247-.391.114.114,0,0,1,.1-.124c.055,0,.1-.066.1-.148s.044-.148.1-.148.1-.086.1-.191a.33.33,0,0,1,.1-.253.327.327,0,0,0,.1-.252c0-.1.044-.192.1-.192s.1-.133.1-.3q0-.3.148-.3c.092,0,.148-.093.148-.247,0-.136.044-.247.1-.247s.1-.153.1-.34a.615.615,0,0,1,.1-.4.852.852,0,0,0,.1-.494.86.86,0,0,1,.1-.494,2.828,2.828,0,0,0,.1-.985c0-.577.04-.938.107-.96a4.676,4.676,0,0,0,0-2.035c-.072-.024-.111-.38-.111-1.016,0-.587-.04-.98-.1-.98s-.1-.2-.1-.439a.867.867,0,0,0-.1-.5.6.6,0,0,1-.1-.4.606.606,0,0,0-.1-.4.4.4,0,0,1-.1-.3.622.622,0,0,0-.148-.382.573.573,0,0,1-.148-.353c0-.113-.044-.2-.1-.2s-.1-.089-.1-.2-.044-.2-.1-.2-.1-.111-.1-.247-.033-.247-.075-.247-.134-.135-.207-.3a1.8,1.8,0,0,0-.251-.42,6.866,6.866,0,0,1-.442-.593,6.266,6.266,0,0,0-1.384-1.454.146.146,0,0,1-.127-.078,2.376,2.376,0,0,0-.885-.613.457.457,0,0,1-.284-.2.541.541,0,0,0-.42-.2.371.371,0,0,1-.334-.148.274.274,0,0,0-.244-.148c-.1,0-.187-.044-.187-.1s-.175-.1-.389-.1a.736.736,0,0,1-.45-.1,1.721,1.721,0,0,0-.747-.1c-.391,0-.686-.042-.686-.1s-.3-.1-.691-.1-.692.042-.692.1m34.129,0a2.877,2.877,0,0,1-.993.1c-.556,0-.933.04-.933.1s-.2.1-.439.1a.875.875,0,0,0-.5.1.513.513,0,0,1-.354.1c-.17,0-.318.062-.351.148a.37.37,0,0,1-.337.148.483.483,0,0,0-.341.1.4.4,0,0,1-.294.1c-.128,0-.248.034-.266.074a2.163,2.163,0,0,1-.513.318,1.566,1.566,0,0,0-.529.37.261.261,0,0,1-.235.127c-.1,0-.187.044-.187.1s-.067.1-.148.1-.148.044-.148.1a.114.114,0,0,1-.124.1,1.165,1.165,0,0,0-.442.346,1.563,1.563,0,0,1-.395.349,3.1,3.1,0,0,0-.719.953c0,.053-.1.153-.232.221a1.012,1.012,0,0,0-.364.461c-.073.186-.168.337-.213.337s-.08.089-.08.2-.044.2-.1.2-.1.111-.1.247-.041.247-.091.247c-.1,0-.4.558-.4.756,0,.073-.044.133-.1.133s-.1.155-.1.346-.044.346-.1.346-.1.173-.1.385-.053.4-.129.434-.139.244-.154.521a2.1,2.1,0,0,1-.117.646,33.96,33.96,0,0,0,.005,5.127c.054,0,.1.223.1.5,0,.351.044.514.148.554s.148.184.148.386a.591.591,0,0,0,.1.391.4.4,0,0,1,.1.3.4.4,0,0,0,.1.3.3.3,0,0,1,.1.228,1.47,1.47,0,0,0,.173.478c.092.171.251.471.352.667s.223.356.271.356.088.089.088.2.044.2.1.2a.1.1,0,0,1,.1.1,9.29,9.29,0,0,0,2.552,2.47,2.632,2.632,0,0,1,.391.271.484.484,0,0,0,.275.123c.078,0,.141.034.141.075s.145.133.321.2a4.94,4.94,0,0,1,.493.222.83.83,0,0,0,.321.092c.082,0,.15.044.15.1s.127.1.284.1a.591.591,0,0,1,.4.138c.127.154.5.248,1.268.324.286.028.519.088.519.133a19.344,19.344,0,0,0,4.282.2,3.444,3.444,0,0,1,1.122-.1,2.963,2.963,0,0,0,1.018-.09c0-.05.277-.113.617-.139a3.39,3.39,0,0,0,1.5-.327.957.957,0,0,1,.464-.135.461.461,0,0,0,.33-.1.508.508,0,0,1,.352-.1c.159,0,.29-.044.29-.1s.089-.1.2-.1a.97.97,0,0,0,.37-.087,7.073,7.073,0,0,1,.839-.346c.19-.06.257-1.02.083-1.2a1.6,1.6,0,0,1-.142-.588,4.661,4.661,0,0,0-.344-1.652,1.292,1.292,0,0,1-.116-.634,1.1,1.1,0,0,0-.1-.578.392.392,0,0,1-.1-.292.317.317,0,0,0-.148-.287c-.175-.068-.445.02-.445.145,0,.049-.111.088-.247.088s-.247.044-.247.1-.131.1-.29.1a.508.508,0,0,0-.351.1.736.736,0,0,1-.45.1c-.214,0-.389.036-.389.081s-.211.091-.469.1a2.342,2.342,0,0,0-.756.167,23.657,23.657,0,0,1-4.8.052c0-.05-.133-.12-.3-.156a.719.719,0,0,1-.351-.156.352.352,0,0,0-.264-.091,3.585,3.585,0,0,1-1.263-.877,1.911,1.911,0,0,0-.3-.408,1.393,1.393,0,0,1-.3-.457.4.4,0,0,0-.148-.234.522.522,0,0,1-.148-.358c0-.129-.044-.235-.1-.235s-.1-.222-.1-.494v-.494H265.58V34.96a1.35,1.35,0,0,1,.1-.648,15.783,15.783,0,0,0,.1-2.673,13.862,13.862,0,0,0-.1-2.612c-.054,0-.1-.164-.1-.363a3.212,3.212,0,0,0-.309-1.241.982.982,0,0,1-.087-.37c0-.11-.04-.2-.088-.2s-.116-.111-.15-.247-.105-.247-.159-.247-.1-.089-.1-.2-.044-.2-.1-.2-.1-.089-.1-.2-.037-.2-.082-.2-.145-.121-.222-.268a7.393,7.393,0,0,0-1.71-1.708c-.088,0-.159-.05-.159-.113,0-.136-.3-.373-.474-.378a.75.75,0,0,1-.34-.2.724.724,0,0,0-.385-.2.3.3,0,0,1-.234-.1.392.392,0,0,0-.292-.1.319.319,0,0,1-.287-.148c-.033-.087-.181-.148-.356-.148s-.3-.044-.3-.1-.2-.1-.445-.1-.445-.044-.445-.1-.36-.1-.883-.1a2.649,2.649,0,0,1-.945-.1,2.822,2.822,0,0,0-1.482,0m-93.736.372a25.893,25.893,0,0,0-3.778.135c-.15.125-.2,22.448-.05,22.684.062.1.894.119,3.826.1l3.747-.025.025-11.4c.014-6.272-.008-11.429-.049-11.459s-1.715-.043-3.721-.028m95.449,4.941a6,6,0,0,0,.534.313c.149.075.271.2.271.268s.034.132.074.133c.089,0,.321.479.321.661,0,.071.04.129.088.129.09,0,.164.341.271,1.259.1.852.242.816-3.137.816h-2.952V30c0-.33.044-.593.1-.593s.1-.112.1-.249a1.583,1.583,0,0,1,.247-.64,2.092,2.092,0,0,0,.247-.471c0-.043.089-.143.2-.221s.2-.18.2-.226c0-.137.27-.366.431-.366a.269.269,0,0,0,.21-.1.332.332,0,0,1,.253-.1c.1,0,.191-.044.191-.1a4.9,4.9,0,0,1,2.355.078m-36.732.811c0,.055.133.1.3.1s.3.044.3.1.092.1.206.1a3.692,3.692,0,0,1,1.375,1.326c0,.086.044.156.1.156s.1.111.1.247.044.247.1.247.1.089.1.2.044.2.1.2.1.179.1.4c0,.263.05.417.148.455.124.047.148.356.148,1.93,0,1.534-.027,1.9-.148,2.022a.629.629,0,0,0-.148.39c0,.311-.223,1.028-.321,1.028-.041,0-.075.089-.075.2s-.044.2-.1.2-.1.088-.1.2c0,.316-.878,1.275-1.366,1.491-.172.076-.314.172-.314.213s-.08.075-.178.075a.454.454,0,0,0-.271.09,1.24,1.24,0,0,1-.487.14c-.216.028-.408.1-.428.157a8.975,8.975,0,0,1-2.686.014c0-.051-.2-.123-.445-.159L216,39.278V29.117l.228-.218a2.3,2.3,0,0,1,.784-.529c.1-.031.173-.1.173-.145s.087-.087.191-.087a.33.33,0,0,0,.253-.1.619.619,0,0,1,.4-.1c.187,0,.34-.044.34-.1a2.538,2.538,0,0,1,1.037-.1c.626,0,1.037.039,1.037.1m-98.832,1.974,6.026.051.05,6.173.05,6.174.024-6.13a51.386,51.386,0,0,0-.1-6.248,48.973,48.973,0,0,0-6.1-.1l-5.981.024,6.026.05" transform="translate(-34.791)" fill="#e49c24" fill-rule="evenodd"/>
    <path id="path1" d="M30.167,29.229v16.4h4.138c3.682,0,4.145-.017,4.2-.156.033-.086.06-2.6.06-5.581V34.464h.5c.539,0,.543,0,1.131.741.216.271.437.542.492.6s.187.232.3.383a5.465,5.465,0,0,0,.42.506,1.031,1.031,0,0,1,.222.288,1.039,1.039,0,0,0,.222.289,5.38,5.38,0,0,1,.42.506,4.472,4.472,0,0,0,.3.383c.058.059.231.285.393.5a7.3,7.3,0,0,0,.519.622.822.822,0,0,1,.225.321,1.749,1.749,0,0,0,.372.478,3.87,3.87,0,0,1,.514.649c.163.305.581.746.707.746.047,0,.085.07.085.155a.474.474,0,0,0,.124.282c.068.071.257.3.42.5s.352.433.42.5a.436.436,0,0,1,.124.18,2.211,2.211,0,0,0,.346.423,1.679,1.679,0,0,1,.346.455,1.122,1.122,0,0,0,.3.365,1.054,1.054,0,0,1,.3.377,1.823,1.823,0,0,0,.376.5l.376.4h10.8c6.513,0,10.853-.037,10.91-.092a2.927,2.927,0,0,1,.884-.143,6.563,6.563,0,0,0,1.971-.268.96.96,0,0,1,.472-.09c.245,0,.4-.052.435-.148s.2-.148.491-.148c.239,0,.434-.044.434-.1s.155-.1.346-.1.346-.044.346-.1.108-.1.241-.1a.411.411,0,0,0,.3-.1.414.414,0,0,1,.3-.1c.133,0,.241-.044.241-.1s.08-.1.178-.1a.748.748,0,0,0,.37-.145.763.763,0,0,1,.365-.148c.1,0,.173-.048.173-.1s.087-.1.191-.1a.33.33,0,0,0,.253-.1.332.332,0,0,1,.253-.1c.1,0,.192-.034.193-.074a1.007,1.007,0,0,1,.4-.263c.222-.1.394-.226.394-.271s.067-.083.148-.083.148-.044.148-.1.089-.1.2-.1.2-.044.2-.1a.1.1,0,0,1,.106-.1.44.44,0,0,0,.236-.123q.192-.17.4-.321c.151-.108.322-.244.382-.3s.284-.234.5-.4a12.066,12.066,0,0,0,1.927-1.964,2.742,2.742,0,0,1,.346-.41,1.387,1.387,0,0,0,.346-.5c0-.074.044-.135.1-.135s.1-.066.1-.148.044-.148.1-.148.1-.089.1-.2.041-.2.092-.2.155-.123.233-.272a16.685,16.685,0,0,0,1.163-2.543,4.623,4.623,0,0,1,.2-.567,1.252,1.252,0,0,0,.087-.463.51.51,0,0,1,.1-.353,1.011,1.011,0,0,0,.1-.549c0-.268.044-.488.1-.488.2,0,.094-.274-.123-.333-.122-.033-1.494-.06-3.048-.061h-2.83l-.072-1.61c-.038-.9-.056-1.654-.04-1.669s2.756-.06,6.088-.1a58.093,58.093,0,0,0,6.1-.183c.075-.206.092-12.211.018-12.211-.041,0-.074,2.685-.074,5.968s-.027,6.038-.06,6.124c-.054.14-.677.156-6.024.156H80.846l-.057-.226a3.944,3.944,0,0,1-.027-.815l.03-.589,2.988-.026,2.988-.027v-.536a1.165,1.165,0,0,0-.1-.6.51.51,0,0,1-.1-.353,1.225,1.225,0,0,0-.089-.463,4.7,4.7,0,0,1-.218-.616,5.744,5.744,0,0,0-.355-.879,2.159,2.159,0,0,1-.227-.568c0-.073-.044-.134-.1-.134s-.1-.078-.1-.172a.917.917,0,0,0-.195-.42.92.92,0,0,1-.2-.373.231.231,0,0,0-.151-.183.274.274,0,0,1-.148-.244c0-.1-.044-.187-.1-.187s-.1-.067-.1-.148-.044-.148-.1-.148-.1-.06-.1-.135a1.387,1.387,0,0,0-.346-.5,2.743,2.743,0,0,1-.346-.41,11.654,11.654,0,0,0-1.827-1.87c-.271-.217-.542-.439-.6-.493s-.269-.21-.469-.346a1.181,1.181,0,0,1-.363-.321c0-.041-.067-.074-.149-.074s-.148-.044-.148-.1-.089-.1-.2-.1-.2-.044-.2-.1a.1.1,0,0,0-.108-.1,1.279,1.279,0,0,1-.42-.222,4.7,4.7,0,0,0-1.3-.664c-.072,0-.132-.044-.132-.1s-.078-.1-.173-.1a.763.763,0,0,1-.365-.148.748.748,0,0,0-.37-.145c-.1,0-.178-.044-.178-.1s-.108-.1-.241-.1a.414.414,0,0,1-.3-.1.411.411,0,0,0-.3-.1c-.133,0-.241-.044-.241-.1s-.155-.1-.346-.1-.346-.044-.346-.1-.2-.1-.434-.1c-.295,0-.452-.047-.491-.148s-.19-.148-.435-.148a.96.96,0,0,1-.472-.089,1.844,1.844,0,0,0-.637-.151c-.3-.034-.944-.109-1.433-.167-.506-.061-3.577-.124-7.137-.148l-6.248-.041v15.56c0,10.307-.033,15.559-.1,15.559a.1.1,0,0,1-.1-.1.114.114,0,0,0-.124-.1c-.068,0-.183-.132-.254-.293a3.7,3.7,0,0,0-.567-.756,2.561,2.561,0,0,1-.438-.546.092.092,0,0,0-.1-.083.109.109,0,0,1-.1-.116A1.861,1.861,0,0,0,55.4,41.4a2.064,2.064,0,0,1-.445-.522,3.162,3.162,0,0,0-.544-.653,3.517,3.517,0,0,1-.543-.638,2.248,2.248,0,0,0-.4-.51c-.219-.235-.5-.561-.618-.724a6.63,6.63,0,0,0-.49-.576,1.632,1.632,0,0,1-.271-.327,1.339,1.339,0,0,0-.247-.293,1.032,1.032,0,0,1-.247-.32,3.389,3.389,0,0,0-.494-.59,3.309,3.309,0,0,1-.494-.593,3.2,3.2,0,0,0-.469-.586A8.149,8.149,0,0,1,49.228,34a1.73,1.73,0,0,0-.245-.312c-.135-.151-.378-.429-.54-.619l-.3-.346.257-.02c.134-.017.244-.073.244-.123s.089-.092.2-.092.2-.044.2-.1.065-.1.145-.1c.55,0,3.806-2.614,3.806-3.055a.1.1,0,0,1,.1-.106c.055,0,.1-.064.1-.143a.293.293,0,0,1,.128-.222,2.32,2.32,0,0,0,.564-.974c0-.078.044-.143.1-.143s.1-.063.1-.14a1.567,1.567,0,0,1,.165-.469c.091-.181.2-.406.247-.5a1.323,1.323,0,0,0,.082-.463.51.51,0,0,1,.1-.353,1.5,1.5,0,0,0,.1-.691,1.516,1.516,0,0,1,.1-.692,3.3,3.3,0,0,0,.1-1.086,3.3,3.3,0,0,0-.1-1.087,1.511,1.511,0,0,1-.1-.691,1.5,1.5,0,0,0-.1-.692.6.6,0,0,1-.1-.4.6.6,0,0,0-.1-.395.319.319,0,0,1-.1-.246.554.554,0,0,0-.148-.333.515.515,0,0,1-.148-.3c0-.085-.044-.155-.1-.155s-.1-.063-.1-.139c0-.233-.424-.948-.562-.948-.071,0-.13-.088-.13-.194A9.379,9.379,0,0,0,51.308,15.7a1.047,1.047,0,0,1-.357-.247.928.928,0,0,0-.4-.247c-.073,0-.134-.044-.134-.1s-.066-.1-.148-.1-.148-.044-.148-.1-.068-.1-.15-.1a1.655,1.655,0,0,1-.541-.247,1.67,1.67,0,0,0-.536-.247.263.263,0,0,1-.205-.1.411.411,0,0,0-.3-.1c-.133,0-.241-.044-.241-.1s-.133-.1-.3-.1-.3-.044-.3-.1-.136-.1-.3-.1a.738.738,0,0,1-.452-.148.8.8,0,0,0-.481-.148.6.6,0,0,1-.394-.1,1.172,1.172,0,0,0-.6-.1c-.3,0-.538-.044-.538-.1s-.344-.1-.833-.1a2.378,2.378,0,0,1-.9-.1c-.04-.064-2.306-.1-6.476-.1H30.167v16.4m12.15-9.779c0,.055.244.1.543.1s.544.041.544.091.145.119.321.154a4.124,4.124,0,0,1,1.185.449,1.224,1.224,0,0,1,.469.309c0,.046.06.083.133.083s.24.142.37.316a6.358,6.358,0,0,0,.41.494.6.6,0,0,1,.173.32.262.262,0,0,0,.1.2.736.736,0,0,1,.1.45c0,.214.044.389.1.389s.1.261.1.587a1.354,1.354,0,0,1-.1.648.736.736,0,0,0-.1.45c0,.214-.044.389-.1.389s-.1.111-.1.247-.041.247-.092.247-.117.08-.148.178A5.06,5.06,0,0,1,45,26.858a.107.107,0,0,0-.114.1c0,.054-.089.1-.2.1s-.2.044-.2.1-.086.1-.191.1a.332.332,0,0,0-.253.1.317.317,0,0,1-.245.1.549.549,0,0,0-.333.148.837.837,0,0,1-.5.148c-.194,0-.353.044-.353.1s-.377.1-.933.1a2.87,2.87,0,0,0-.993.1,3.334,3.334,0,0,1-1.093.1H38.563v-8.8H40.44a7.394,7.394,0,0,1,1.877.1m27.919.247a1.812,1.812,0,0,0,.7.148.8.8,0,0,1,.475.1.615.615,0,0,0,.4.1c.187,0,.34.044.34.1s.131.1.29.1a.5.5,0,0,1,.351.1.33.33,0,0,0,.253.1c.105,0,.191.044.191.1s.111.1.247.1.247.042.247.094.167.172.37.266a2.566,2.566,0,0,1,.42.228,2.111,2.111,0,0,0,.337.2,3,3,0,0,1,.554.4l.65.6a4.54,4.54,0,0,1,1.126,1.33c0,.079.044.145.1.145s.1.067.1.148.044.148.1.148.1.089.1.2.04.2.088.2.116.111.15.247.106.247.159.247.1.133.1.3.044.3.1.3.1.131.1.29a.5.5,0,0,0,.1.351.814.814,0,0,1,.1.48,1.014,1.014,0,0,0,.107.527,7.568,7.568,0,0,1,.108,1.907,7.568,7.568,0,0,1-.108,1.907,1.014,1.014,0,0,0-.107.527.814.814,0,0,1-.1.48.5.5,0,0,0-.1.351c0,.159-.044.29-.1.29s-.1.133-.1.3-.044.3-.1.3-.125.111-.159.247-.1.247-.15.247-.088.089-.088.2-.044.2-.1.2-.1.066-.1.148-.044.148-.1.148-.1.065-.1.145a6.631,6.631,0,0,1-1.652,1.831,5.627,5.627,0,0,1-1.3.867,1.9,1.9,0,0,0-.485.334c-.018.046-.14.084-.271.084s-.239.044-.239.1-.086.1-.191.1a.33.33,0,0,0-.253.1.5.5,0,0,1-.351.1c-.159,0-.29.04-.29.088s-.167.113-.37.142a5.317,5.317,0,0,0-1.638.355,9.8,9.8,0,0,1-2.16.105H65.926v-19.4H67.94a7,7,0,0,1,2.3.148M94.719,30.044c-.078.212-.1,12.323-.024,12.323.04,0,.085-2.767.1-6.149l.025-6.149,6-.025,6-.025v1.656l-.312.062c-.171.034-.292.083-.267.108a.646.646,0,0,0,.337-.032l.291-.078.028-.907.028-.907h-6.082c-4.776,0-6.092.026-6.127.123" transform="translate(0 -0.202)" fill="#949494" fill-rule="evenodd"/>
    <path id="path2" d="M122.491,23.137v5.136h-2.124c-1.812,0-2.124.022-2.124.147s-.423.151-2.988.173l-2.988.026-.03.589a3.944,3.944,0,0,0,.027.815l.057.226h5.964c5.347,0,5.97-.017,6.024-.156.033-.086.06-2.842.06-6.124V18h-1.877v5.137m-12.324,8.2c0,.19.02.268.045.173a.811.811,0,0,0,0-.346c-.025-.1-.045-.017-.045.173m16.144.856c-.036.037-.066,2.815-.066,6.174v6.108h1.876V34h4.694a40.4,40.4,0,0,0,5.087-.123l.394-.123V32.126h-5.96c-3.278,0-5.989.03-6.025.066M107.6,38.016c-.124.129-.186.234-.139.234.1,0,.463-.382.4-.432-.023-.02-.142.069-.267.2" transform="translate(-31.474 -2.308)" fill="#063693" fill-rule="evenodd"/>
    <path id="path3" d="M129.6,24c0,3.3.037,6.057.081,6.125.062.1,1.338.119,6.049.1l5.97-.025V28.62l-3.5-.05c-2.675-.037-3.508-.078-3.54-.172s-.443-.124-1.613-.124h-1.572V18H129.6v6m30.4.4c.992.017,2.614.017,3.606,0s.18-.029-1.8-.029S159,24.38,160,24.4m13.154,0a19.367,19.367,0,0,1,3.655.149c.139.108.141.1.021-.051s-.4-.171-3.655-.149l-3.519.024,3.5.027m37.027,0c.992.017,2.614.017,3.6,0s.18-.029-1.8-.029-2.795.013-1.8.029m-94.51,8.565V33.8l2.988.053c1.644.03,3.933.078,5.088.107l2.1.053V44.474h1.879l-.025-6.149-.025-6.149-6-.025-6-.025v.836m31.224,4.165c.131.17.258.29.282.268s-.083-.16-.238-.308l-.283-.268.239.308m108.98.8c1.783.015,4.673.015,6.421,0s.289-.027-3.243-.027-4.961.012-3.179.027" transform="translate(-34.825 -2.308)" fill="#eb1e25" fill-rule="evenodd"/>
    <path id="path4" d="M127.826,18.025c-.012.014-.046,2.78-.074,6.149L127.7,30.3l-3.605.06c-1.983.033-4.728.067-6.1.074l-2.494.014v.634a3.767,3.767,0,0,0,.06.79c.054.14.675.156,6.006.156a49.248,49.248,0,0,1,6.065.119,51.72,51.72,0,0,1,.119,6.223v6.1h.79a7.05,7.05,0,0,0,.813-.025c.012-.014.045-2.8.074-6.2l.052-6.174,6.1-.025,6.1-.025-.028-.814-.029-.814-6.02-.025c-4.666-.02-6.038-.053-6.1-.148-.043-.068-.079-2.846-.079-6.173V18h-.79a7.043,7.043,0,0,0-.813.025" transform="translate(-34.757 -2.308)" fill="#fbfbfa" fill-rule="evenodd"/>
  </g>
</svg>
